<svg xmlns="http://www.w3.org/2000/svg" viewBox="0 0 32 32" width="32" height="32">
  <defs>
    <linearGradient id="faviconGradient" x1="0%" y1="0%" x2="100%" y2="100%">
      <stop offset="0%" style="stop-color:#0d6efd;stop-opacity:1" />
      <stop offset="100%" style="stop-color:#0dcaf0;stop-opacity:1" />
    </linearGradient>
  </defs>
  
  <!-- Background circle -->
  <circle cx="16" cy="16" r="15" fill="url(#faviconGradient)"/>
  
  <!-- Building icon -->
  <g transform="translate(8, 8)">
    <!-- Building base -->
    <rect x="4" y="10" width="8" height="6" fill="white" rx="0.5"/>
    
    <!-- Building floors -->
    <rect x="3" y="6" width="10" height="4" fill="white" rx="0.5"/>
    <rect x="2" y="2" width="12" height="4" fill="white" rx="0.5"/>
    
    <!-- Windows -->
    <rect x="3.5" y="3" width="1" height="1" fill="#0d6efd" opacity="0.7"/>
    <rect x="5" y="3" width="1" height="1" fill="#0d6efd" opacity="0.7"/>
    <rect x="6.5" y="3" width="1" height="1" fill="#0d6efd" opacity="0.7"/>
    <rect x="8" y="3" width="1" height="1" fill="#0d6efd" opacity="0.7"/>
    <rect x="9.5" y="3" width="1" height="1" fill="#0d6efd" opacity="0.7"/>
    
    <rect x="3.5" y="7" width="1" height="1" fill="#0d6efd" opacity="0.7"/>
    <rect x="5" y="7" width="1" height="1" fill="#0d6efd" opacity="0.7"/>
    <rect x="6.5" y="7" width="1" height="1" fill="#0d6efd" opacity="0.7"/>
    <rect x="8" y="7" width="1" height="1" fill="#0d6efd" opacity="0.7"/>
    <rect x="9.5" y="7" width="1" height="1" fill="#0d6efd" opacity="0.7"/>
    
    <!-- Crane -->
    <line x1="12" y1="4" x2="16" y2="4" stroke="white" stroke-width="1"/>
    <line x1="14" y1="4" x2="14" y2="7" stroke="white" stroke-width="1"/>
    <circle cx="14" cy="7" r="1" fill="white"/>
  </g>
</svg>

